<?xml version="1.0" standalone="no"?>
<svg xmlns="http://www.w3.org/2000/svg" width="500" height="500"><defs><clipPath id="clip-path-dot-color"><path d="M 18 162v 16h 8a 8 8, 0, 0, 0, 0 -16" transform="rotate(180,26,170)"/><path d="M 18 194v 16h 8a 8 8, 0, 0, 0, 0 -16" transform="rotate(-90,26,202)"/><path d="M 18 210v 16h 8a 8 8, 0, 0, 0, 0 -16" transform="rotate(90,26,218)"/><path d="M 18 242v 16h 16v -8a 8 8, 0, 0, 0, -8 -8" transform="rotate(-90,26,250)"/><path d="M 18 258v 16h 8a 8 8, 0, 0, 0, 0 -16" transform="rotate(90,26,266)"/><path d="M 18 306v 16h 8a 8 8, 0, 0, 0, 0 -16" transform="rotate(180,26,314)"/><path d="M 34 162v 16h 8a 8 8, 0, 0, 0, 0 -16" transform="rotate(0,42,170)"/><path d="M 34 226v 16h 8a 8 8, 0, 0, 0, 0 -16" transform="rotate(-90,42,234)"/><path d="M 34 242v 16h 16v -8a 8 8, 0, 0, 0, -8 -8" transform="rotate(90,42,250)"/><path d="M 34 274v 16h 16v -8a 8 8, 0, 0, 0, -8 -8" transform="rotate(-90,42,282)"/><rect x="34" y="290" width="16" height="16" transform="rotate(0,42,298)"/><rect x="34" y="306" width="16" height="16" transform="rotate(0,42,314)"/><path d="M 34 322v 16h 16v -8a 8 8, 0, 0, 0, -8 -8" transform="rotate(180,42,330)"/><circle cx="58" cy="154" r="8" transform="rotate(0,58,154)"/><circle cx="58" cy="202" r="8" transform="rotate(0,58,202)"/><rect x="50" y="274" width="16" height="16" transform="rotate(0,58,282)"/><path d="M 50 290v 16h 16v -8a 8 8, 0, 0, 0, -8 -8" transform="rotate(90,58,298)"/><rect x="50" y="322" width="16" height="16" transform="rotate(0,58,330)"/><path d="M 50 338v 16h 8a 8 8, 0, 0, 0, 0 -16" transform="rotate(90,58,346)"/><path d="M 66 210v 16h 8a 8 8, 0, 0, 0, 0 -16" transform="rotate(-90,74,218)"/><path d="M 66 226v 16h 8a 8 8, 0, 0, 0, 0 -16" transform="rotate(90,74,234)"/><path d="M 66 258v 16h 16v -8a 8 8, 0, 0, 0, -8 -8" transform="rotate(-90,74,266)"/><rect x="66" y="274" width="16" height="16" transform="rotate(0,74,282)"/><path d="M 66 306v 16h 16v -8a 8 8, 0, 0, 0, -8 -8" transform="rotate(-90,74,314)"/><path d="M 66 322v 16h 16v -8a 8 8, 0, 0, 0, -8 -8" transform="rotate(90,74,330)"/><path d="M 82 146v 16h 8a 8 8, 0, 0, 0, 0 -16" transform="rotate(180,90,154)"/><path d="M 82 242v 16h 8a 8 8, 0, 0, 0, 0 -16" transform="rotate(-90,90,250)"/><rect x="82" y="258" width="16" height="16" transform="rotate(0,90,266)"/><rect x="82" y="274" width="16" height="16" transform="rotate(0,90,282)"/><rect x="82" y="290" width="16" height="16" transform="rotate(0,90,298)"/><path d="M 82 306v 16h 16v -8a 8 8, 0, 0, 0, -8 -8" transform="rotate(90,90,314)"/><rect x="98" y="146" width="16" height="16" transform="rotate(0,106,154)"/><path d="M 98 178v 16h 16v -8a 8 8, 0, 0, 0, -8 -8" transform="rotate(-90,106,186)"/><rect x="98" y="194" width="16" height="16" transform="rotate(0,106,202)"/><rect x="98" y="210" width="16" height="16" transform="rotate(0,106,218)"/><path d="M 98 226v 16h 8a 8 8, 0, 0, 0, 0 -16" transform="rotate(90,106,234)"/><path d="M 98 258v 16h 8a 8 8, 0, 0, 0, 0 -16" transform="rotate(0,106,266)"/><circle cx="106" cy="330" r="8" transform="rotate(0,106,330)"/><path d="M 114 146v 16h 8a 8 8, 0, 0, 0, 0 -16" transform="rotate(0,122,154)"/><path d="M 114 178v 16h 8a 8 8, 0, 0, 0, 0 -16" transform="rotate(0,122,186)"/><rect x="114" y="210" width="16" height="16" transform="rotate(0,122,218)"/><path d="M 114 242v 16h 8a 8 8, 0, 0, 0, 0 -16" transform="rotate(180,122,250)"/><path d="M 114 274v 16h 8a 8 8, 0, 0, 0, 0 -16" transform="rotate(180,122,282)"/><path d="M 114 306v 16h 8a 8 8, 0, 0, 0, 0 -16" transform="rotate(180,122,314)"/><path d="M 114 338v 16h 8a 8 8, 0, 0, 0, 0 -16" transform="rotate(180,122,346)"/><circle cx="138" cy="170" r="8" transform="rotate(0,138,170)"/><path d="M 130 210v 16h 8a 8 8, 0, 0, 0, 0 -16" transform="rotate(0,138,218)"/><rect x="130" y="242" width="16" height="16" transform="rotate(0,138,250)"/><rect x="130" y="274" width="16" height="16" transform="rotate(0,138,282)"/><rect x="130" y="290" width="16" height="16" transform="rotate(0,138,298)"/><rect x="130" y="306" width="16" height="16" transform="rotate(0,138,314)"/><rect x="130" y="322" width="16" height="16" transform="rotate(0,138,330)"/><rect x="130" y="338" width="16" height="16" transform="rotate(0,138,346)"/><path d="M 146 34v 16h 8a 8 8, 0, 0, 0, 0 -16" transform="rotate(180,154,42)"/><circle cx="154" cy="90" r="8" transform="rotate(0,154,90)"/><circle cx="154" cy="122" r="8" transform="rotate(0,154,122)"/><circle cx="154" cy="154" r="8" transform="rotate(0,154,154)"/><circle cx="154" cy="186" r="8" transform="rotate(0,154,186)"/><path d="M 146 226v 16h 8a 8 8, 0, 0, 0, 0 -16" transform="rotate(-90,154,234)"/><rect x="146" y="242" width="16" height="16" transform="rotate(0,154,250)"/><path d="M 146 274v 16h 8a 8 8, 0, 0, 0, 0 -16" transform="rotate(0,154,282)"/><rect x="146" y="306" width="16" height="16" transform="rotate(0,154,314)"/><path d="M 146 338v 16h 16v -8a 8 8, 0, 0, 0, -8 -8" transform="rotate(0,154,346)"/><path d="M 146 354v 16h 16v -8a 8 8, 0, 0, 0, -8 -8" transform="rotate(180,154,362)"/><path d="M 146 386v 16h 16v -8a 8 8, 0, 0, 0, -8 -8" transform="rotate(-90,154,394)"/><path d="M 146 402v 16h 16v -8a 8 8, 0, 0, 0, -8 -8" transform="rotate(180,154,410)"/><path d="M 146 434v 16h 8a 8 8, 0, 0, 0, 0 -16" transform="rotate(180,154,442)"/><path d="M 162 18v 16h 8a 8 8, 0, 0, 0, 0 -16" transform="rotate(-90,170,26)"/><rect x="162" y="34" width="16" height="16" transform="rotate(0,170,42)"/><path d="M 162 50v 16h 16v -8a 8 8, 0, 0, 0, -8 -8" transform="rotate(180,170,58)"/><path d="M 162 98v 16h 8a 8 8, 0, 0, 0, 0 -16" transform="rotate(180,170,106)"/><path d="M 162 130v 16h 8a 8 8, 0, 0, 0, 0 -16" transform="rotate(180,170,138)"/><circle cx="170" cy="170" r="8" transform="rotate(0,170,170)"/><path d="M 162 194v 16h 8a 8 8, 0, 0, 0, 0 -16" transform="rotate(-90,170,202)"/><path d="M 162 210v 16h 8a 8 8, 0, 0, 0, 0 -16" transform="rotate(90,170,218)"/><path d="M 162 242v 16h 16v -8a 8 8, 0, 0, 0, -8 -8" transform="rotate(0,170,250)"/><path d="M 162 258v 16h 16v -8a 8 8, 0, 0, 0, -8 -8" transform="rotate(180,170,266)"/><path d="M 162 290v 16h 16v -8a 8 8, 0, 0, 0, -8 -8" transform="rotate(-90,170,298)"/><path d="M 162 306v 16h 16v -8a 8 8, 0, 0, 0, -8 -8" transform="rotate(90,170,314)"/><rect x="162" y="354" width="16" height="16" transform="rotate(0,170,362)"/><rect x="162" y="370" width="16" height="16" transform="rotate(0,170,378)"/><rect x="162" y="386" width="16" height="16" transform="rotate(0,170,394)"/><rect x="162" y="402" width="16" height="16" transform="rotate(0,170,410)"/><rect x="162" y="418" width="16" height="16" transform="rotate(0,170,426)"/><rect x="162" y="434" width="16" height="16" transform="rotate(0,170,442)"/><rect x="162" y="450" width="16" height="16" transform="rotate(0,170,458)"/><path d="M 162 466v 16h 16v -8a 8 8, 0, 0, 0, -8 -8" transform="rotate(180,170,474)"/><rect x="178" y="34" width="16" height="16" transform="rotate(0,186,42)"/><rect x="178" y="50" width="16" height="16" transform="rotate(0,186,58)"/><path d="M 178 82v 16h 8a 8 8, 0, 0, 0, 0 -16" transform="rotate(-90,186,90)"/><rect x="178" y="98" width="16" height="16" transform="rotate(0,186,106)"/><rect x="178" y="114" width="16" height="16" transform="rotate(0,186,122)"/><rect x="178" y="130" width="16" height="16" transform="rotate(0,186,138)"/><path d="M 178 146v 16h 8a 8 8, 0, 0, 0, 0 -16" transform="rotate(90,186,154)"/><path d="M 178 226v 16h 8a 8 8, 0, 0, 0, 0 -16" transform="rotate(180,186,234)"/><rect x="178" y="258" width="16" height="16" transform="rotate(0,186,266)"/><rect x="178" y="290" width="16" height="16" transform="rotate(0,186,298)"/><path d="M 178 338v 16h 8a 8 8, 0, 0, 0, 0 -16" transform="rotate(-90,186,346)"/><rect x="178" y="354" width="16" height="16" transform="rotate(0,186,362)"/><rect x="178" y="418" width="16" height="16" transform="rotate(0,186,426)"/><rect x="178" y="466" width="16" height="16" transform="rotate(0,186,474)"/><path d="M 194 18v 16h 16v -8a 8 8, 0, 0, 0, -8 -8" transform="rotate(-90,202,26)"/><rect x="194" y="34" width="16" height="16" transform="rotate(0,202,42)"/><rect x="194" y="50" width="16" height="16" transform="rotate(0,202,58)"/><path d="M 194 66v 16h 8a 8 8, 0, 0, 0, 0 -16" transform="rotate(90,202,74)"/><path d="M 194 98v 16h 8a 8 8, 0, 0, 0, 0 -16" transform="rotate(0,202,106)"/><path d="M 194 130v 16h 8a 8 8, 0, 0, 0, 0 -16" transform="rotate(0,202,138)"/><path d="M 194 162v 16h 8a 8 8, 0, 0, 0, 0 -16" transform="rotate(-90,202,170)"/><path d="M 194 178v 16h 8a 8 8, 0, 0, 0, 0 -16" transform="rotate(90,202,186)"/><path d="M 194 226v 16h 8a 8 8, 0, 0, 0, 0 -16" transform="rotate(0,202,234)"/><path d="M 194 258v 16h 8a 8 8, 0, 0, 0, 0 -16" transform="rotate(0,202,266)"/><rect x="194" y="290" width="16" height="16" transform="rotate(0,202,298)"/><rect x="194" y="306" width="16" height="16" transform="rotate(0,202,314)"/><path d="M 194 322v 16h 16v -8a 8 8, 0, 0, 0, -8 -8" transform="rotate(180,202,330)"/><path d="M 194 354v 16h 8a 8 8, 0, 0, 0, 0 -16" transform="rotate(0,202,362)"/><path d="M 194 386v 16h 8a 8 8, 0, 0, 0, 0 -16" transform="rotate(180,202,394)"/><path d="M 194 418v 16h 8a 8 8, 0, 0, 0, 0 -16" transform="rotate(0,202,426)"/><path d="M 194 450v 16h 8a 8 8, 0, 0, 0, 0 -16" transform="rotate(-90,202,458)"/><rect x="194" y="466" width="16" height="16" transform="rotate(0,202,474)"/><path d="M 210 18v 16h 8a 8 8, 0, 0, 0, 0 -16" transform="rotate(0,218,26)"/><rect x="210" y="50" width="16" height="16" transform="rotate(0,218,58)"/><circle cx="218" cy="90" r="8" transform="rotate(0,218,90)"/><circle cx="218" cy="122" r="8" transform="rotate(0,218,122)"/><circle cx="218" cy="202" r="8" transform="rotate(0,218,202)"/><path d="M 210 274v 16h 16v -8a 8 8, 0, 0, 0, -8 -8" transform="rotate(-90,218,282)"/><rect x="210" y="290" width="16" height="16" transform="rotate(0,218,298)"/><path d="M 210 322v 16h 16v -8a 8 8, 0, 0, 0, -8 -8" transform="rotate(0,218,330)"/><path d="M 210 338v 16h 8a 8 8, 0, 0, 0, 0 -16" transform="rotate(90,218,346)"/><path d="M 210 386v 16h 8a 8 8, 0, 0, 0, 0 -16" transform="rotate(0,218,394)"/><rect x="210" y="466" width="16" height="16" transform="rotate(0,218,474)"/><path d="M 226 34v 16h 16v -8a 8 8, 0, 0, 0, -8 -8" transform="rotate(-90,234,42)"/><rect x="226" y="50" width="16" height="16" transform="rotate(0,234,58)"/><path d="M 226 98v 16h 8a 8 8, 0, 0, 0, 0 -16" transform="rotate(180,234,106)"/><path d="M 226 162v 16h 8a 8 8, 0, 0, 0, 0 -16" transform="rotate(-90,234,170)"/><path d="M 226 178v 16h 8a 8 8, 0, 0, 0, 0 -16" transform="rotate(90,234,186)"/><path d="M 226 210v 16h 8a 8 8, 0, 0, 0, 0 -16" transform="rotate(-90,234,218)"/><rect x="226" y="226" width="16" height="16" transform="rotate(0,234,234)"/><path d="M 226 242v 16h 16v -8a 8 8, 0, 0, 0, -8 -8" transform="rotate(180,234,250)"/><path d="M 226 274v 16h 16v -8a 8 8, 0, 0, 0, -8 -8" transform="rotate(0,234,282)"/><rect x="226" y="290" width="16" height="16" transform="rotate(0,234,298)"/><path d="M 226 306v 16h 16v -8a 8 8, 0, 0, 0, -8 -8" transform="rotate(180,234,314)"/><path d="M 226 370v 16h 8a 8 8, 0, 0, 0, 0 -16" transform="rotate(180,234,378)"/><path d="M 226 402v 16h 8a 8 8, 0, 0, 0, 0 -16" transform="rotate(180,234,410)"/><circle cx="234" cy="442" r="8" transform="rotate(0,234,442)"/><rect x="226" y="466" width="16" height="16" transform="rotate(0,234,474)"/><path d="M 242 18v 16h 16v -8a 8 8, 0, 0, 0, -8 -8" transform="rotate(-90,250,26)"/><rect x="242" y="34" width="16" height="16" transform="rotate(0,250,42)"/><rect x="242" y="50" width="16" height="16" transform="rotate(0,250,58)"/><rect x="242" y="66" width="16" height="16" transform="rotate(0,250,74)"/><rect x="242" y="82" width="16" height="16" transform="rotate(0,250,90)"/><rect x="242" y="98" width="16" height="16" transform="rotate(0,250,106)"/><path d="M 242 114v 16h 8a 8 8, 0, 0, 0, 0 -16" transform="rotate(90,250,122)"/><circle cx="250" cy="202" r="8" transform="rotate(0,250,202)"/><path d="M 242 226v 16h 16v -8a 8 8, 0, 0, 0, -8 -8" transform="rotate(0,250,234)"/><path d="M 242 242v 16h 16v -8a 8 8, 0, 0, 0, -8 -8" transform="rotate(90,250,250)"/><path d="M 242 306v 16h 8a 8 8, 0, 0, 0, 0 -16" transform="rotate(0,250,314)"/><path d="M 242 354v 16h 16v -8a 8 8, 0, 0, 0, -8 -8" transform="rotate(-90,250,362)"/><path d="M 242 370v 16h 16v -8a 8 8, 0, 0, 0, -8 -8" transform="rotate(90,250,378)"/><path d="M 242 402v 16h 8a 8 8, 0, 0, 0, 0 -16" transform="rotate(0,250,410)"/><rect x="242" y="466" width="16" height="16" transform="rotate(0,250,474)"/><path d="M 258 18v 16h 16v -8a 8 8, 0, 0, 0, -8 -8" transform="rotate(0,266,26)"/><rect x="258" y="34" width="16" height="16" transform="rotate(0,266,42)"/><rect x="258" y="50" width="16" height="16" transform="rotate(0,266,58)"/><rect x="258" y="82" width="16" height="16" transform="rotate(0,266,90)"/><path d="M 258 98v 16h 16v -8a 8 8, 0, 0, 0, -8 -8" transform="rotate(90,266,106)"/><circle cx="266" cy="138" r="8" transform="rotate(0,266,138)"/><circle cx="266" cy="170" r="8" transform="rotate(0,266,170)"/><path d="M 258 258v 16h 8a 8 8, 0, 0, 0, 0 -16" transform="rotate(-90,266,266)"/><path d="M 258 274v 16h 16v -8a 8 8, 0, 0, 0, -8 -8" transform="rotate(180,266,282)"/><path d="M 258 322v 16h 8a 8 8, 0, 0, 0, 0 -16" transform="rotate(180,266,330)"/><rect x="258" y="354" width="16" height="16" transform="rotate(0,266,362)"/><circle cx="266" cy="394" r="8" transform="rotate(0,266,394)"/><circle cx="266" cy="426" r="8" transform="rotate(0,266,426)"/><path d="M 258 450v 16h 16v -8a 8 8, 0, 0, 0, -8 -8" transform="rotate(-90,266,458)"/><rect x="258" y="466" width="16" height="16" transform="rotate(0,266,474)"/><rect x="274" y="50" width="16" height="16" transform="rotate(0,282,58)"/><rect x="274" y="82" width="16" height="16" transform="rotate(0,282,90)"/><circle cx="282" cy="122" r="8" transform="rotate(0,282,122)"/><path d="M 274 194v 16h 16v -8a 8 8, 0, 0, 0, -8 -8" transform="rotate(-90,282,202)"/><path d="M 274 210v 16h 8a 8 8, 0, 0, 0, 0 -16" transform="rotate(90,282,218)"/><path d="M 274 274v 16h 8a 8 8, 0, 0, 0, 0 -16" transform="rotate(0,282,282)"/><path d="M 274 322v 16h 16v -8a 8 8, 0, 0, 0, -8 -8" transform="rotate(0,282,330)"/><rect x="274" y="338" width="16" height="16" transform="rotate(0,282,346)"/><path d="M 274 354v 16h 16v -8a 8 8, 0, 0, 0, -8 -8" transform="rotate(90,282,362)"/><path d="M 274 450v 16h 16v -8a 8 8, 0, 0, 0, -8 -8" transform="rotate(0,282,458)"/><rect x="274" y="466" width="16" height="16" transform="rotate(0,282,474)"/><circle cx="298" cy="26" r="8" transform="rotate(0,298,26)"/><path d="M 290 50v 16h 8a 8 8, 0, 0, 0, 0 -16" transform="rotate(0,298,58)"/><rect x="290" y="82" width="16" height="16" transform="rotate(0,298,90)"/><path d="M 290 98v 16h 16v -8a 8 8, 0, 0, 0, -8 -8" transform="rotate(180,298,106)"/><path d="M 290 178v 16h 16v -8a 8 8, 0, 0, 0, -8 -8" transform="rotate(-90,298,186)"/><path d="M 290 194v 16h 16v -8a 8 8, 0, 0, 0, -8 -8" transform="rotate(90,298,202)"/><path d="M 290 226v 16h 8a 8 8, 0, 0, 0, 0 -16" transform="rotate(-90,298,234)"/><path d="M 290 242v 16h 16v -8a 8 8, 0, 0, 0, -8 -8" transform="rotate(180,298,250)"/><path d="M 290 290v 16h 8a 8 8, 0, 0, 0, 0 -16" transform="rotate(-90,298,298)"/><path d="M 290 306v 16h 16v -8a 8 8, 0, 0, 0, -8 -8" transform="rotate(180,298,314)"/><path d="M 290 370v 16h 8a 8 8, 0, 0, 0, 0 -16" transform="rotate(-90,298,378)"/><rect x="290" y="386" width="16" height="16" transform="rotate(0,298,394)"/><path d="M 290 402v 16h 16v -8a 8 8, 0, 0, 0, -8 -8" transform="rotate(180,298,410)"/><path d="M 290 434v 16h 8a 8 8, 0, 0, 0, 0 -16" transform="rotate(180,298,442)"/><rect x="290" y="466" width="16" height="16" transform="rotate(0,298,474)"/><path d="M 306 66v 16h 8a 8 8, 0, 0, 0, 0 -16" transform="rotate(-90,314,74)"/><rect x="306" y="82" width="16" height="16" transform="rotate(0,314,90)"/><rect x="306" y="98" width="16" height="16" transform="rotate(0,314,106)"/><path d="M 306 114v 16h 8a 8 8, 0, 0, 0, 0 -16" transform="rotate(90,314,122)"/><path d="M 306 178v 16h 8a 8 8, 0, 0, 0, 0 -16" transform="rotate(0,314,186)"/><path d="M 306 210v 16h 8a 8 8, 0, 0, 0, 0 -16" transform="rotate(180,314,218)"/><rect x="306" y="242" width="16" height="16" transform="rotate(0,314,250)"/><path d="M 306 258v 16h 16v -8a 8 8, 0, 0, 0, -8 -8" transform="rotate(180,314,266)"/><path d="M 306 306v 16h 8a 8 8, 0, 0, 0, 0 -16" transform="rotate(0,314,314)"/><path d="M 306 402v 16h 16v -8a 8 8, 0, 0, 0, -8 -8" transform="rotate(0,314,410)"/><rect x="306" y="418" width="16" height="16" transform="rotate(0,314,426)"/><path d="M 306 434v 16h 16v -8a 8 8, 0, 0, 0, -8 -8" transform="rotate(90,314,442)"/><rect x="306" y="466" width="16" height="16" transform="rotate(0,314,474)"/><rect x="322" y="82" width="16" height="16" transform="rotate(0,330,90)"/><rect x="322" y="98" width="16" height="16" transform="rotate(0,330,106)"/><path d="M 322 130v 16h 8a 8 8, 0, 0, 0, 0 -16" transform="rotate(-90,330,138)"/><path d="M 322 146v 16h 8a 8 8, 0, 0, 0, 0 -16" transform="rotate(90,330,154)"/><rect x="322" y="210" width="16" height="16" transform="rotate(0,330,218)"/><rect x="322" y="226" width="16" height="16" transform="rotate(0,330,234)"/><rect x="322" y="242" width="16" height="16" transform="rotate(0,330,250)"/><rect x="322" y="258" width="16" height="16" transform="rotate(0,330,266)"/><rect x="322" y="274" width="16" height="16" transform="rotate(0,330,282)"/><path d="M 322 290v 16h 16v -8a 8 8, 0, 0, 0, -8 -8" transform="rotate(180,330,298)"/><path d="M 322 322v 16h 8a 8 8, 0, 0, 0, 0 -16" transform="rotate(-90,330,330)"/><path d="M 322 338v 16h 16v -8a 8 8, 0, 0, 0, -8 -8" transform="rotate(180,330,346)"/><path d="M 322 386v 16h 8a 8 8, 0, 0, 0, 0 -16" transform="rotate(180,330,394)"/><rect x="322" y="418" width="16" height="16" transform="rotate(0,330,426)"/><path d="M 322 450v 16h 16v -8a 8 8, 0, 0, 0, -8 -8" transform="rotate(-90,330,458)"/><rect x="322" y="466" width="16" height="16" transform="rotate(0,330,474)"/><path d="M 338 18v 16h 8a 8 8, 0, 0, 0, 0 -16" transform="rotate(-90,346,26)"/><path d="M 338 34v 16h 8a 8 8, 0, 0, 0, 0 -16" transform="rotate(90,346,42)"/><path d="M 338 66v 16h 8a 8 8, 0, 0, 0, 0 -16" transform="rotate(-90,346,74)"/><rect x="338" y="82" width="16" height="16" transform="rotate(0,346,90)"/><rect x="338" y="98" width="16" height="16" transform="rotate(0,346,106)"/><path d="M 338 114v 16h 8a 8 8, 0, 0, 0, 0 -16" transform="rotate(90,346,122)"/><path d="M 338 194v 16h 8a 8 8, 0, 0, 0, 0 -16" transform="rotate(-90,346,202)"/><rect x="338" y="210" width="16" height="16" transform="rotate(0,346,218)"/><path d="M 338 226v 16h 16v -8a 8 8, 0, 0, 0, -8 -8" transform="rotate(90,346,234)"/><path d="M 338 290v 16h 8a 8 8, 0, 0, 0, 0 -16" transform="rotate(0,346,298)"/><rect x="338" y="338" width="16" height="16" transform="rotate(0,346,346)"/><rect x="338" y="354" width="16" height="16" transform="rotate(0,346,362)"/><rect x="338" y="370" width="16" height="16" transform="rotate(0,346,378)"/><rect x="338" y="386" width="16" height="16" transform="rotate(0,346,394)"/><rect x="338" y="402" width="16" height="16" transform="rotate(0,346,410)"/><path d="M 338 418v 16h 16v -8a 8 8, 0, 0, 0, -8 -8" transform="rotate(90,346,426)"/><path d="M 338 450v 16h 16v -8a 8 8, 0, 0, 0, -8 -8" transform="rotate(0,346,458)"/><rect x="338" y="466" width="16" height="16" transform="rotate(0,346,474)"/><circle cx="362" cy="154" r="8" transform="rotate(0,362,154)"/><circle cx="362" cy="186" r="8" transform="rotate(0,362,186)"/><path d="M 354 242v 16h 8a 8 8, 0, 0, 0, 0 -16" transform="rotate(-90,362,250)"/><rect x="354" y="258" width="16" height="16" transform="rotate(0,362,266)"/><path d="M 354 274v 16h 8a 8 8, 0, 0, 0, 0 -16" transform="rotate(90,362,282)"/><rect x="354" y="338" width="16" height="16" transform="rotate(0,362,346)"/><rect x="354" y="402" width="16" height="16" transform="rotate(0,362,410)"/><circle cx="362" cy="442" r="8" transform="rotate(0,362,442)"/><rect x="354" y="466" width="16" height="16" transform="rotate(0,362,474)"/><circle cx="378" cy="202" r="8" transform="rotate(0,378,202)"/><circle cx="378" cy="234" r="8" transform="rotate(0,378,234)"/><path d="M 370 258v 16h 8a 8 8, 0, 0, 0, 0 -16" transform="rotate(0,378,266)"/><path d="M 370 290v 16h 8a 8 8, 0, 0, 0, 0 -16" transform="rotate(180,378,298)"/><path d="M 370 322v 16h 16v -8a 8 8, 0, 0, 0, -8 -8" transform="rotate(-90,378,330)"/><rect x="370" y="338" width="16" height="16" transform="rotate(0,378,346)"/><circle cx="378" cy="378" r="8" transform="rotate(0,378,378)"/><rect x="370" y="402" width="16" height="16" transform="rotate(0,378,410)"/><path d="M 370 466v 16h 8a 8 8, 0, 0, 0, 0 -16" transform="rotate(0,378,474)"/><path d="M 386 162v 16h 8a 8 8, 0, 0, 0, 0 -16" transform="rotate(-90,394,170)"/><path d="M 386 178v 16h 16v -8a 8 8, 0, 0, 0, -8 -8" transform="rotate(180,394,186)"/><path d="M 386 210v 16h 8a 8 8, 0, 0, 0, 0 -16" transform="rotate(180,394,218)"/><path d="M 386 242v 16h 8a 8 8, 0, 0, 0, 0 -16" transform="rotate(180,394,250)"/><path d="M 386 290v 16h 16v -8a 8 8, 0, 0, 0, -8 -8" transform="rotate(0,394,298)"/><rect x="386" y="306" width="16" height="16" transform="rotate(0,394,314)"/><rect x="386" y="322" width="16" height="16" transform="rotate(0,394,330)"/><rect x="386" y="338" width="16" height="16" transform="rotate(0,394,346)"/><rect x="386" y="402" width="16" height="16" transform="rotate(0,394,410)"/><path d="M 386 418v 16h 8a 8 8, 0, 0, 0, 0 -16" transform="rotate(90,394,426)"/><path d="M 386 450v 16h 8a 8 8, 0, 0, 0, 0 -16" transform="rotate(180,394,458)"/><circle cx="410" cy="154" r="8" transform="rotate(0,410,154)"/><rect x="402" y="178" width="16" height="16" transform="rotate(0,410,186)"/><rect x="402" y="210" width="16" height="16" transform="rotate(0,410,218)"/><rect x="402" y="242" width="16" height="16" transform="rotate(0,410,250)"/><path d="M 402 258v 16h 8a 8 8, 0, 0, 0, 0 -16" transform="rotate(90,410,266)"/><path d="M 402 306v 16h 16v -8a 8 8, 0, 0, 0, -8 -8" transform="rotate(0,410,314)"/><rect x="402" y="322" width="16" height="16" transform="rotate(0,410,330)"/><rect x="402" y="338" width="16" height="16" transform="rotate(0,410,346)"/><rect x="402" y="354" width="16" height="16" transform="rotate(0,410,362)"/><rect x="402" y="370" width="16" height="16" transform="rotate(0,410,378)"/><rect x="402" y="386" width="16" height="16" transform="rotate(0,410,394)"/><path d="M 402 402v 16h 16v -8a 8 8, 0, 0, 0, -8 -8" transform="rotate(90,410,410)"/><rect x="402" y="450" width="16" height="16" transform="rotate(0,410,458)"/><path d="M 402 466v 16h 8a 8 8, 0, 0, 0, 0 -16" transform="rotate(90,410,474)"/><path d="M 418 162v 16h 16v -8a 8 8, 0, 0, 0, -8 -8" transform="rotate(-90,426,170)"/><rect x="418" y="178" width="16" height="16" transform="rotate(0,426,186)"/><rect x="418" y="210" width="16" height="16" transform="rotate(0,426,218)"/><rect x="418" y="242" width="16" height="16" transform="rotate(0,426,250)"/><path d="M 418 274v 16h 8a 8 8, 0, 0, 0, 0 -16" transform="rotate(180,426,282)"/><path d="M 418 386v 16h 8a 8 8, 0, 0, 0, 0 -16" transform="rotate(0,426,394)"/><rect x="418" y="450" width="16" height="16" transform="rotate(0,426,458)"/><path d="M 434 162v 16h 16v -8a 8 8, 0, 0, 0, -8 -8" transform="rotate(0,442,170)"/><rect x="434" y="178" width="16" height="16" transform="rotate(0,442,186)"/><path d="M 434 210v 16h 8a 8 8, 0, 0, 0, 0 -16" transform="rotate(0,442,218)"/><path d="M 434 242v 16h 8a 8 8, 0, 0, 0, 0 -16" transform="rotate(0,442,250)"/><path d="M 434 274v 16h 8a 8 8, 0, 0, 0, 0 -16" transform="rotate(0,442,282)"/><path d="M 434 322v 16h 8a 8 8, 0, 0, 0, 0 -16" transform="rotate(-90,442,330)"/><rect x="434" y="338" width="16" height="16" transform="rotate(0,442,346)"/><path d="M 434 354v 16h 8a 8 8, 0, 0, 0, 0 -16" transform="rotate(90,442,362)"/><path d="M 434 434v 16h 8a 8 8, 0, 0, 0, 0 -16" transform="rotate(-90,442,442)"/><rect x="434" y="450" width="16" height="16" transform="rotate(0,442,458)"/><path d="M 434 466v 16h 16v -8a 8 8, 0, 0, 0, -8 -8" transform="rotate(180,442,474)"/><circle cx="458" cy="154" r="8" transform="rotate(0,458,154)"/><rect x="450" y="178" width="16" height="16" transform="rotate(0,458,186)"/><path d="M 450 226v 16h 8a 8 8, 0, 0, 0, 0 -16" transform="rotate(180,458,234)"/><path d="M 450 290v 16h 16v -8a 8 8, 0, 0, 0, -8 -8" transform="rotate(-90,458,298)"/><path d="M 450 306v 16h 8a 8 8, 0, 0, 0, 0 -16" transform="rotate(90,458,314)"/><rect x="450" y="338" width="16" height="16" transform="rotate(0,458,346)"/><path d="M 450 370v 16h 8a 8 8, 0, 0, 0, 0 -16" transform="rotate(-90,458,378)"/><path d="M 450 386v 16h 8a 8 8, 0, 0, 0, 0 -16" transform="rotate(90,458,394)"/><path d="M 450 418v 16h 8a 8 8, 0, 0, 0, 0 -16" transform="rotate(180,458,426)"/><rect x="450" y="450" width="16" height="16" transform="rotate(0,458,458)"/><path d="M 450 466v 16h 16v -8a 8 8, 0, 0, 0, -8 -8" transform="rotate(90,458,474)"/><path d="M 466 162v 16h 8a 8 8, 0, 0, 0, 0 -16" transform="rotate(-90,474,170)"/><path d="M 466 178v 16h 16v -8a 8 8, 0, 0, 0, -8 -8" transform="rotate(90,474,186)"/><path d="M 466 226v 16h 16v -8a 8 8, 0, 0, 0, -8 -8" transform="rotate(0,474,234)"/><rect x="466" y="242" width="16" height="16" transform="rotate(0,474,250)"/><path d="M 466 258v 16h 8a 8 8, 0, 0, 0, 0 -16" transform="rotate(90,474,266)"/><path d="M 466 290v 16h 8a 8 8, 0, 0, 0, 0 -16" transform="rotate(0,474,298)"/><path d="M 466 322v 16h 8a 8 8, 0, 0, 0, 0 -16" transform="rotate(-90,474,330)"/><rect x="466" y="338" width="16" height="16" transform="rotate(0,474,346)"/><path d="M 466 354v 16h 8a 8 8, 0, 0, 0, 0 -16" transform="rotate(90,474,362)"/><path d="M 466 402v 16h 8a 8 8, 0, 0, 0, 0 -16" transform="rotate(-90,474,410)"/><path d="M 466 418v 16h 16v -8a 8 8, 0, 0, 0, -8 -8" transform="rotate(90,474,426)"/><path d="M 466 450v 16h 8a 8 8, 0, 0, 0, 0 -16" transform="rotate(0,474,458)"/></clipPath><clipPath id="clip-path-corners-square-color-0-0"><path clip-rule="evenodd" d="M 18 58v 32a 40 40, 0, 0, 0, 40 40h 32a 40 40, 0, 0, 0, 40 -40v -32a 40 40, 0, 0, 0, -40 -40h -32a 40 40, 0, 0, 0, -40 40M 58 34h 32a 24 24, 0, 0, 1, 24 24v 32a 24 24, 0, 0, 1, -24 24h -32a 24 24, 0, 0, 1, -24 -24v -32a 24 24, 0, 0, 1, 24 -24" transform="rotate(0,74,74)"/></clipPath><clipPath id="clip-path-corners-dot-color-0-0"><circle cx="74" cy="74" r="24" transform="rotate(0,74,74)"/></clipPath><clipPath id="clip-path-corners-square-color-1-0"><path clip-rule="evenodd" d="M 370 58v 32a 40 40, 0, 0, 0, 40 40h 32a 40 40, 0, 0, 0, 40 -40v -32a 40 40, 0, 0, 0, -40 -40h -32a 40 40, 0, 0, 0, -40 40M 410 34h 32a 24 24, 0, 0, 1, 24 24v 32a 24 24, 0, 0, 1, -24 24h -32a 24 24, 0, 0, 1, -24 -24v -32a 24 24, 0, 0, 1, 24 -24" transform="rotate(90,426,74)"/></clipPath><clipPath id="clip-path-corners-dot-color-1-0"><circle cx="426" cy="74" r="24" transform="rotate(90,426,74)"/></clipPath><clipPath id="clip-path-corners-square-color-0-1"><path clip-rule="evenodd" d="M 18 410v 32a 40 40, 0, 0, 0, 40 40h 32a 40 40, 0, 0, 0, 40 -40v -32a 40 40, 0, 0, 0, -40 -40h -32a 40 40, 0, 0, 0, -40 40M 58 386h 32a 24 24, 0, 0, 1, 24 24v 32a 24 24, 0, 0, 1, -24 24h -32a 24 24, 0, 0, 1, -24 -24v -32a 24 24, 0, 0, 1, 24 -24" transform="rotate(-90,74,426)"/></clipPath><clipPath id="clip-path-corners-dot-color-0-1"><circle cx="74" cy="426" r="24" transform="rotate(-90,74,426)"/></clipPath></defs><rect x="0" y="0" height="500" width="500" clip-path="url('#clip-path-background-color')" fill="#fff"/><rect x="0" y="0" height="500" width="500" clip-path="url('#clip-path-dot-color')" fill="#000000"/><rect x="18" y="18" height="112" width="112" clip-path="url('#clip-path-corners-square-color-0-0')" fill="#000000"/><rect x="50" y="50" height="48" width="48" clip-path="url('#clip-path-corners-dot-color-0-0')" fill="#000000"/><rect x="370" y="18" height="112" width="112" clip-path="url('#clip-path-corners-square-color-1-0')" fill="#000000"/><rect x="402" y="50" height="48" width="48" clip-path="url('#clip-path-corners-dot-color-1-0')" fill="#000000"/><rect x="18" y="370" height="112" width="112" clip-path="url('#clip-path-corners-square-color-0-1')" fill="#000000"/><rect x="50" y="402" height="48" width="48" clip-path="url('#clip-path-corners-dot-color-0-1')" fill="#000000"/></svg>